<?xml version="1.0" standalone="no"?>
<!DOCTYPE svg PUBLIC "-//W3C//DTD SVG 20010904//EN"
 "http://www.w3.org/TR/2001/REC-SVG-20010904/DTD/svg10.dtd">
<svg version="1.0" xmlns="http://www.w3.org/2000/svg"
 width="799.000000pt" height="670.000000pt" viewBox="0 0 799.000000 670.000000"
 preserveAspectRatio="xMidYMid meet">
<metadata>
Created by potrace 1.16, written by Peter Selinger 2001-2019
</metadata>
<g transform="translate(0.000000,670.000000) scale(0.100000,-0.100000)"
fill="#000000" stroke="none">
<path d="M3908 6349 c-5 -3 -46 -7 -91 -7 -45 -1 -95 -5 -112 -10 -16 -5 -46
-7 -65 -6 -29 3 -31 2 -15 -6 16 -8 13 -9 -15 -5 -83 11 -240 7 -257 -6 -9 -8
-14 -9 -11 -4 4 6 -2 11 -13 11 -10 0 -19 -4 -19 -8 0 -4 -3 -7 -7 -7 -29 5
-33 -4 -8 -16 l30 -15 -32 3 c-18 2 -33 0 -33 -5 0 -5 -4 -7 -9 -4 -13 8 -42
-4 -36 -15 3 -4 -14 -13 -37 -19 -24 -6 -52 -15 -63 -20 -11 -6 -29 -12 -40
-13 -62 -11 -129 -63 -140 -110 -4 -15 -11 -28 -16 -28 -5 -1 -13 -2 -18 -3
-5 0 -19 -13 -31 -28 -12 -16 -28 -28 -36 -28 -8 0 -14 -5 -14 -11 0 -5 6 -7
13 -3 6 4 1 -6 -13 -22 -14 -15 -17 -22 -7 -15 9 7 17 9 17 4 0 -16 -48 -63
-65 -63 -13 0 -19 -12 -16 -32 0 -5 -3 -8 -8 -8 -5 0 -9 -32 -9 -71 0 -39 -5
-76 -11 -82 -6 -6 -11 -16 -11 -21 0 -6 5 -4 10 4 5 8 10 11 10 5 -1 -5 -7
-18 -15 -28 -13 -18 -14 -17 -18 5 -3 13 -4 4 -3 -19 2 -24 -1 -43 -6 -43 -14
0 -1 -162 15 -187 4 -6 4 -18 1 -27 -3 -9 -1 -16 5 -16 6 0 11 -6 11 -14 0 -8
3 -17 8 -20 4 -2 7 17 7 44 0 27 3 46 7 44 5 -3 8 -1 8 5 0 5 -5 11 -12 13 -7
3 -8 10 -4 17 7 11 10 11 18 0 6 -10 7 -7 3 8 -4 13 0 31 8 43 13 18 15 19 21
5 9 -24 7 -32 -3 -16 -6 9 -9 -3 -9 -35 1 -27 -3 -57 -7 -68 -5 -11 -3 -27 4
-38 7 -12 8 -17 2 -13 -7 4 -11 -8 -11 -35 0 -24 4 -39 10 -35 11 7 52 -69 42
-80 -4 -5 -1 -5 6 -1 6 4 12 16 12 26 0 10 5 22 12 26 8 5 9 2 5 -9 -3 -9 -3
-18 1 -21 4 -2 9 7 10 22 1 14 7 31 12 36 6 6 10 20 10 32 0 12 6 25 13 27 10
4 10 6 0 6 -7 1 -13 6 -13 12 0 5 4 8 9 5 9 -6 34 18 27 25 -2 2 6 4 19 4 13
0 21 -3 18 -7 -2 -5 -11 -8 -20 -8 -9 0 -14 -3 -10 -6 3 -4 18 -4 32 0 18 5
25 13 25 31 0 13 5 27 12 31 7 4 8 3 4 -4 -4 -7 -3 -12 2 -12 5 0 12 9 15 21
3 12 3 18 0 15 -3 -3 -15 0 -26 6 -16 8 -19 7 -15 -3 3 -8 -6 -25 -20 -39 -14
-14 -20 -18 -13 -8 8 11 9 18 1 23 -5 3 -10 12 -10 18 0 7 4 6 10 -3 5 -8 10
-12 11 -7 11 57 55 108 90 102 23 -4 23 -4 5 10 -11 8 -15 15 -9 15 7 0 15 10
18 21 6 17 9 19 16 8 7 -12 9 -12 9 0 0 8 3 12 6 8 4 -3 13 0 21 8 23 24 38
17 17 -7 -10 -12 -13 -18 -5 -13 8 4 17 2 22 -6 7 -11 9 -10 9 4 0 9 5 17 11
17 5 0 7 -6 3 -12 -4 -7 5 -2 18 12 21 21 22 26 10 31 -10 4 -12 8 -5 12 6 4
9 16 6 26 -4 15 3 22 31 31 21 7 36 18 36 27 0 14 2 14 18 0 17 -16 64 -25 49
-11 -4 4 3 15 15 25 11 11 17 19 12 19 -14 0 19 20 34 20 7 0 10 -5 7 -10 -4
-6 -10 -8 -14 -6 -4 3 -12 -4 -19 -15 -16 -25 -2 -24 27 2 14 14 20 28 17 42
-3 12 -3 16 0 9 3 -6 10 -10 15 -7 5 4 6 -2 3 -12 -5 -17 -5 -17 6 0 6 9 21
17 33 17 13 0 28 5 34 11 6 6 28 12 48 13 20 2 41 9 46 17 8 12 10 12 18 0 7
-12 13 -12 24 -3 7 7 17 9 21 5 4 -4 4 0 1 8 -5 14 1 16 34 13 31 -2 41 1 41
12 0 9 5 12 10 9 6 -4 8 -10 5 -15 -3 -4 20 -2 50 5 30 7 57 9 61 6 3 -3 9 -6
12 -7 4 0 14 -3 22 -7 30 -11 90 -16 90 -6 0 5 9 9 20 9 11 0 20 -6 20 -12 0
-9 4 -8 10 2 8 13 10 12 10 -3 0 -10 5 -15 10 -12 6 3 10 0 10 -7 0 -8 5 -6
11 5 10 17 12 17 40 0 26 -16 31 -16 39 -3 7 11 10 11 10 2 0 -8 5 -10 13 -5
26 16 71 1 60 -22 -2 -5 3 -1 11 9 9 11 16 15 16 9 0 -6 11 -8 25 -5 15 2 25
0 25 -7 0 -6 -4 -11 -10 -11 -5 0 -10 -5 -10 -10 0 -6 14 -4 34 4 30 13 34 13
29 0 -4 -10 0 -12 13 -7 13 5 16 3 11 -10 -4 -12 -1 -15 14 -12 10 2 19 -1 19
-6 0 -6 5 -7 10 -4 6 3 10 1 10 -5 0 -6 5 -8 13 -3 6 4 4 -5 -6 -20 -15 -23
-15 -28 -3 -25 8 2 15 -1 15 -5 0 -4 7 -14 15 -22 8 -8 12 -23 9 -34 -3 -10 0
-22 6 -25 6 -4 9 -1 5 7 -3 8 -1 18 5 21 6 4 7 14 4 24 -5 14 -3 15 7 5 10 -9
10 -16 2 -26 -8 -10 -8 -20 3 -40 8 -15 9 -25 4 -21 -8 4 -9 -5 -5 -27 4 -25
4 -29 -3 -14 -5 11 -10 16 -10 11 -1 -5 -8 -3 -16 4 -13 10 -15 9 -15 -8 0
-12 -4 -23 -9 -26 -5 -3 -7 -16 -5 -29 2 -12 2 -16 -2 -9 -3 6 -13 12 -21 12
-12 0 -8 -7 10 -23 15 -12 27 -27 27 -32 0 -6 -5 -3 -10 5 -8 13 -11 13 -19 1
-5 -8 -16 -11 -24 -8 -11 4 -14 1 -11 -7 3 -8 14 -12 25 -9 20 6 27 -11 9 -22
-6 -4 -8 -11 -5 -16 4 -5 -1 -9 -9 -9 -10 0 -13 6 -10 18 5 14 4 14 -4 2 -14
-18 -6 -30 19 -30 10 0 19 -5 19 -10 0 -11 47 -54 61 -56 5 -1 10 -3 12 -4 1
-1 12 -4 25 -5 17 -2 21 2 17 16 -3 9 0 21 6 25 8 4 9 3 5 -5 -4 -6 -2 -18 4
-26 16 -20 3 -40 -16 -24 -10 8 -14 8 -14 0 0 -10 14 -15 33 -12 4 1 12 -10
17 -24 5 -14 12 -25 15 -25 4 0 3 5 -1 12 -5 7 -3 8 5 4 7 -5 10 -15 7 -23 -3
-8 -1 -11 4 -8 6 3 10 0 10 -7 0 -9 3 -9 10 2 8 13 10 13 10 -1 0 -9 10 -24
22 -35 12 -10 18 -13 14 -6 -4 6 -2 12 3 12 6 0 11 -8 11 -19 0 -10 13 -29 28
-41 21 -17 27 -29 24 -46 -3 -19 0 -24 16 -24 15 0 20 -6 18 -25 0 -14 -3 -25
-6 -25 -3 0 -7 -10 -7 -22 -2 -16 0 -19 6 -9 7 10 17 4 42 -24 19 -21 33 -41
32 -46 -2 -5 4 -6 12 -3 8 4 15 2 15 -3 0 -5 18 -28 41 -52 58 -60 43 -61 -20
-1 -29 27 -56 50 -62 50 -5 0 -8 3 -8 8 3 18 -2 32 -12 32 -6 0 -25 10 -42 22
-18 13 -35 23 -39 23 -3 0 -10 4 -15 9 -5 6 -2 6 7 1 13 -8 13 -7 1 8 -7 9
-19 17 -25 17 -6 0 -33 18 -60 40 -26 22 -52 40 -57 40 -5 0 -9 12 -9 26 0 31
-23 57 -37 43 -7 -7 -22 1 -46 25 -20 20 -42 36 -50 36 -13 0 -57 40 -57 52 0
3 -13 20 -29 37 -31 33 -76 55 -93 45 -6 -4 -8 -2 -5 3 4 6 0 24 -8 40 -23 46
-73 58 -183 44 -48 -6 -111 -11 -140 -11 -56 0 -166 -25 -285 -64 -43 -14 -85
-26 -95 -26 -9 0 -26 -7 -36 -15 -16 -12 -22 -12 -28 -2 -5 8 -8 6 -8 -8 0
-17 -2 -17 -10 -5 -8 13 -10 13 -10 0 0 -11 -3 -11 -12 -2 -9 9 -16 4 -30 -19
-16 -25 -21 -28 -39 -19 -18 10 -19 9 -8 -7 9 -16 7 -26 -15 -57 -14 -21 -26
-43 -26 -47 0 -5 -12 -8 -27 -7 -36 2 -102 -12 -109 -23 -3 -5 -18 -9 -34 -9
-16 0 -32 -5 -36 -11 -5 -8 -10 -6 -16 5 -5 9 -13 14 -17 12 -4 -3 -8 5 -8 16
-3 36 -28 51 -88 53 -36 1 -67 -4 -88 -15 -35 -19 -57 -16 -57 6 0 9 -4 12
-10 9 -5 -3 -10 -13 -10 -21 0 -8 4 -13 9 -10 5 3 15 -2 22 -11 12 -14 12 -16
0 -9 -8 5 -16 3 -22 -5 -6 -10 -10 -7 -17 11 -10 24 -10 24 -17 -11 -6 -31
-14 -39 -63 -62 -31 -15 -61 -27 -65 -27 -4 0 -35 -18 -68 -40 -33 -22 -63
-40 -67 -40 -8 0 -85 -53 -94 -65 -15 -20 -8 -65 12 -77 13 -8 20 -24 20 -43
0 -17 4 -35 9 -40 5 -6 11 -57 13 -115 4 -107 31 -200 59 -200 7 0 6 8 -5 25
-25 39 -46 133 -46 211 0 64 2 72 21 77 12 3 31 2 42 -3 12 -5 18 -9 14 -9 -5
-1 5 -13 20 -28 16 -16 67 -64 113 -108 58 -57 81 -73 77 -57 -3 13 -1 20 5
16 5 -4 8 -17 5 -30 -2 -14 -1 -27 3 -29 12 -7 41 42 34 58 -3 8 2 21 10 30 8
8 13 16 11 19 -2 2 5 4 16 4 18 0 19 -2 4 -12 -9 -7 -12 -15 -7 -18 13 -8 52
22 52 40 0 9 7 22 15 30 18 18 20 34 4 34 -13 0 -1 82 13 91 5 3 23 5 39 3 34
-4 42 10 64 106 7 30 13 46 14 35 0 -11 -6 -47 -14 -80 -19 -82 -20 -81 20
-39 19 20 35 42 35 48 0 6 18 28 39 48 29 27 38 42 34 57 -3 12 -9 19 -13 16
-11 -7 -19 31 -13 55 3 11 12 20 20 20 8 0 11 4 8 10 -3 6 1 7 9 4 10 -4 16
-1 16 7 0 12 2 12 9 0 7 -11 10 -9 16 8 5 17 13 21 33 19 37 -4 51 -25 52 -78
1 -108 37 -238 76 -278 8 -7 14 -18 14 -23 0 -5 15 -18 33 -29 26 -17 50 -20
137 -20 113 0 176 13 265 54 32 14 62 26 69 26 15 0 116 99 116 114 0 8 11 11
30 8 17 -2 30 -7 30 -11 0 -3 18 -6 40 -7 36 -1 40 1 34 19 -4 14 -3 17 6 12
9 -5 10 -2 5 14 -7 22 10 30 18 9 4 -9 6 -8 6 2 1 8 -10 24 -24 34 -13 10 -23
22 -21 25 3 4 -10 8 -27 9 -18 1 -37 9 -43 18 -10 13 -12 13 -18 -2 -3 -9 -4
-20 -1 -24 3 -5 1 -11 -5 -15 -16 -10 -10 32 22 150 19 71 17 68 32 56 7 -6
16 -8 19 -4 4 3 7 -2 7 -11 0 -12 5 -16 15 -12 17 6 65 -13 65 -26 0 -18 50
-7 65 15 8 12 18 21 20 20 3 -2 8 -3 13 -3 4 0 -27 17 -68 38 -138 71 -144 79
-84 132 42 36 69 36 69 0 0 -19 6 -26 24 -28 21 -3 137 -74 151 -93 3 -3 19
-13 36 -22 17 -9 62 -44 100 -78 67 -61 90 -92 62 -86 -7 2 -3 -1 9 -7 12 -5
30 -24 39 -42 10 -18 20 -31 23 -29 2 3 13 -2 23 -12 10 -9 18 -14 18 -11 0 3
17 -10 37 -28 34 -31 38 -41 45 -102 17 -155 23 -214 26 -265 1 -19 6 -26 15
-21 6 4 1 -5 -13 -21 -14 -16 -19 -25 -12 -21 8 5 12 -1 12 -18 0 -14 4 -26 9
-26 6 0 9 -9 8 -19 -1 -15 -5 -17 -13 -10 -9 8 -17 2 -28 -20 -19 -36 -23 -76
-5 -51 9 13 10 13 6 0 -2 -8 -13 -15 -24 -14 -18 1 -20 -4 -19 -37 1 -21 -2
-36 -6 -33 -4 3 -8 11 -8 18 0 8 -9 16 -20 19 -15 4 -20 0 -20 -13 0 -11 -10
-26 -21 -34 -20 -13 -20 -16 -6 -30 13 -14 16 -14 21 0 3 8 2 12 -4 9 -6 -3
-10 -2 -10 3 0 19 14 21 32 5 22 -20 24 -11 2 11 -9 9 -11 16 -4 16 6 0 8 5 5
10 -3 6 -1 10 4 10 6 0 12 -10 13 -22 0 -13 2 -36 3 -51 1 -16 -4 -31 -13 -36
-8 -4 -16 -20 -17 -34 -2 -14 -6 -31 -10 -37 -4 -6 -2 -16 4 -23 7 -9 5 -16
-10 -25 -16 -10 -21 -10 -26 4 -6 15 -8 15 -20 -2 -13 -17 -14 -16 -11 17 1
25 6 35 14 32 9 -3 12 6 12 27 l-1 31 -18 -28 c-11 -15 -19 -37 -20 -48 0 -15
-2 -16 -6 -5 -3 8 -11 18 -16 22 -6 3 -12 14 -13 23 -5 35 -15 28 -12 -9 1
-20 6 -40 10 -42 4 -3 8 -10 8 -15 0 -6 -4 -7 -10 -4 -5 3 -10 -3 -10 -14 0
-12 5 -21 11 -21 5 0 7 5 4 10 -3 6 -1 10 5 10 7 0 10 -6 7 -12 -2 -7 -18 -13
-34 -13 -17 0 -35 -3 -39 -7 -4 -4 -12 -3 -19 2 -8 6 -12 6 -12 -3 0 -6 -4
-21 -8 -32 -5 -16 -5 -17 4 -5 8 12 11 12 11 1 0 -7 -15 -27 -32 -43 -27 -24
-28 -27 -8 -16 14 7 28 18 32 23 5 6 8 5 9 -2 1 -7 2 -19 3 -25 1 -7 -2 -16
-7 -19 -6 -4 0 -10 12 -14 27 -8 28 -40 1 -42 -11 -1 -20 2 -20 8 0 5 5 9 11
9 5 0 7 5 3 12 -5 7 -12 5 -22 -8 -13 -17 -14 -16 -9 21 5 29 3 35 -4 23 -5
-10 -11 -43 -11 -74 -1 -31 -4 -52 -6 -45 -8 25 -22 9 -21 -26 1 -34 2 -35 9
-13 l8 25 1 -27 c1 -20 -4 -28 -15 -28 -10 0 -14 -6 -11 -14 4 -11 1 -13 -10
-9 -10 4 -14 2 -9 -5 3 -6 2 -13 -3 -17 -6 -3 -13 11 -17 31 -3 19 -13 38 -20
41 -8 3 -14 13 -14 22 0 14 2 14 10 1 9 -13 10 -13 11 0 0 8 5 4 9 -10 8 -25
8 -24 9 5 1 23 3 27 11 15 7 -11 10 -3 9 30 l-1 45 -14 -30 c-11 -22 -14 -24
-10 -7 2 12 0 22 -5 22 -5 0 -9 -6 -9 -12 0 -9 -4 -8 -10 2 -5 8 -10 20 -10
25 0 6 5 3 10 -5 8 -12 10 -11 10 7 0 24 -19 43 -21 21 -1 -7 -3 -23 -4 -36
-1 -13 5 -30 13 -39 15 -14 14 -15 -5 -9 -19 6 -20 3 -17 -26 4 -25 0 -36 -16
-46 -12 -7 -20 -8 -20 -2 0 12 -22 9 -33 -5 -9 -11 -4 53 7 95 6 20 4 19 -8
-5 -8 -16 -15 -24 -15 -17 -2 21 -21 13 -21 -9 0 -11 4 -18 8 -15 5 3 9 -14
10 -37 1 -23 4 -49 7 -58 4 -10 -4 -23 -20 -33 -26 -17 -26 -17 -16 2 6 11 14
22 19 24 5 1 5 14 1 28 -7 24 -7 24 -8 3 -1 -33 -31 -30 -31 3 0 21 -3 24 -14
15 -8 -7 -11 -22 -8 -38 3 -18 1 -24 -7 -19 -14 9 -15 53 -1 61 6 3 10 15 10
26 0 11 4 18 9 15 9 -6 6 42 -4 52 -4 4 -5 -2 -3 -13 1 -11 -2 -19 -8 -18 -7
1 -10 -7 -8 -20 4 -22 4 -21 -8 1 -8 16 -9 29 -2 40 6 9 7 28 3 42 -5 16 -7
19 -8 7 -1 -9 -12 -22 -24 -28 -19 -8 -23 -17 -19 -36 3 -18 1 -24 -6 -19 -8
4 -10 2 -6 -8 3 -8 12 -12 19 -10 8 3 11 13 8 21 -4 11 -2 14 5 9 15 -9 16
-36 2 -36 -5 0 -10 -4 -10 -9 0 -5 10 -7 23 -5 12 2 17 2 11 -1 -6 -3 -8 -19
-6 -36 2 -16 0 -29 -4 -28 -22 4 -35 -2 -28 -13 5 -7 3 -8 -5 -4 -7 5 -11 20
-10 34 2 15 -1 34 -6 42 -11 18 -14 33 -17 78 -1 18 -4 28 -8 22 -4 -6 -5 -23
-2 -38 4 -23 3 -25 -10 -15 -12 10 -15 10 -15 -2 0 -8 6 -15 14 -15 7 0 13 -8
13 -17 0 -15 -2 -16 -10 -3 -8 13 -10 12 -10 -2 0 -10 -4 -18 -9 -18 -5 0 -12
-7 -15 -16 -3 -8 -2 -13 3 -10 4 3 13 -10 18 -29 8 -25 8 -35 -2 -38 -19 -8
-33 5 -40 38 -4 17 -23 46 -42 67 -24 24 -33 41 -27 50 5 9 2 9 -11 -2 -17
-14 -18 -13 -12 2 3 10 1 20 -5 24 -6 4 -9 3 -6 -2 3 -5 0 -15 -7 -21 -11 -10
-15 -9 -20 7 -3 11 -19 29 -36 41 -16 11 -27 25 -24 30 4 5 0 9 -7 9 -9 0 -9
3 2 10 13 9 13 10 0 11 -8 1 -19 1 -24 0 -5 -1 -6 5 -3 14 4 8 2 15 -4 15 -6
0 -8 7 -5 16 7 18 -3 66 -13 60 -4 -3 -7 3 -7 12 -1 9 -5 31 -9 47 -8 28 -7
29 10 15 12 -10 16 -10 11 -2 -4 7 -2 20 6 29 7 9 9 14 3 11 -9 -6 -36 15 -35
27 0 3 -4 13 -10 23 -9 14 -10 11 -5 -13 4 -22 3 -26 -5 -15 -5 8 -10 23 -10
33 0 10 -4 15 -10 12 -5 -3 -10 -1 -10 5 0 6 -4 8 -10 5 -5 -3 -10 -1 -10 5 0
6 -4 9 -9 6 -5 -4 -14 6 -19 21 -6 16 -11 22 -11 15 -1 -7 -5 -10 -11 -7 -5 3
-10 1 -10 -5 0 -6 -7 -4 -16 5 -10 9 -24 15 -34 12 -11 -3 -16 2 -16 17 1 15
-4 20 -16 18 -11 -2 -18 3 -18 14 0 16 -1 16 -18 1 -21 -19 -62 -23 -62 -6 0
5 5 7 12 3 7 -4 8 -3 4 5 -4 6 -13 8 -19 4 -21 -13 -54 -12 -54 2 0 8 3 13 6
12 7 -2 11 8 11 28 0 11 -7 14 -25 11 -18 -3 -25 0 -25 11 0 9 3 14 6 10 4 -3
22 0 41 8 19 8 40 12 46 8 6 -3 7 -1 3 5 -4 7 6 17 27 25 45 19 68 58 66 110
-2 31 -9 48 -27 65 -30 27 -36 28 -23 5 14 -26 11 -92 -5 -107 -7 -8 -11 -16
-8 -19 3 -2 -2 -7 -11 -11 -11 -4 -14 -2 -10 7 4 6 1 5 -7 -3 -22 -25 -65 -16
-97 21 -29 33 -32 34 -103 33 -132 -2 -149 -10 -157 -75 -1 -4 -12 -9 -26 -11
-14 -3 -22 -1 -18 5 3 5 -3 7 -14 3 -22 -7 -55 4 -90 29 -20 15 -23 15 -41 -5
-21 -23 -21 -58 -1 -71 7 -4 9 -16 7 -27 -4 -16 1 -23 23 -32 25 -11 27 -15
17 -34 -6 -11 -17 -25 -24 -29 -8 -4 -14 -16 -14 -25 0 -15 -2 -15 -10 -2 -8
13 -10 13 -10 -2 0 -9 6 -19 13 -22 8 -3 6 -10 -8 -21 -11 -9 -19 -24 -17 -35
2 -10 -2 -21 -8 -25 -6 -3 -8 -10 -5 -15 3 -4 -9 -36 -26 -71 -31 -61 -41
-132 -23 -161 4 -6 3 -8 -2 -5 -6 3 -11 -4 -11 -16 -2 -17 0 -19 7 -7 8 12 10
10 10 -7 0 -21 -9 -27 -35 -24 -5 1 -1 -6 10 -15 l20 -17 -20 7 c-20 6 -20 6
-1 -9 11 -8 17 -17 14 -20 -3 -3 -12 1 -21 9 -8 8 -17 13 -20 10 -3 -3 -3 5
-1 18 5 20 4 21 -6 6 -6 -9 -17 -15 -25 -12 -12 5 -15 -6 -15 -58 0 -36 5 -69
12 -76 7 -7 9 -12 6 -12 -4 0 2 -32 13 -71 11 -38 17 -74 15 -78 -3 -4 1 -19
9 -34 8 -15 11 -27 7 -27 -3 0 -1 -5 6 -12 7 -7 12 -24 12 -39 0 -15 7 -32 15
-39 8 -7 15 -19 15 -26 0 -8 5 -14 10 -14 6 0 10 -7 10 -15 0 -8 5 -15 10 -15
6 0 10 -9 10 -21 0 -15 4 -19 16 -15 12 5 15 2 10 -9 -4 -11 3 -19 19 -25 14
-5 25 -13 25 -18 0 -5 12 -15 28 -23 15 -8 30 -18 33 -22 3 -5 15 -10 25 -11
10 -2 20 -12 22 -24 3 -18 17 -28 52 -37 30 -9 40 -18 29 -31 -9 -11 -8 -14 6
-14 9 0 15 -6 13 -12 -3 -7 1 -24 8 -37 10 -19 10 -28 2 -39 -9 -10 -8 -12 2
-10 14 3 33 -57 25 -80 -3 -8 0 -10 7 -6 8 5 9 2 5 -9 -4 -11 1 -20 14 -27 11
-6 17 -15 14 -20 -3 -6 3 -20 14 -32 12 -12 21 -30 21 -40 0 -9 9 -37 19 -60
66 -150 95 -247 116 -385 15 -98 20 -113 36 -113 11 0 28 -9 39 -20 20 -20 20
-20 20 7 0 27 1 26 40 -17 22 -24 40 -50 40 -57 0 -6 5 -15 12 -19 7 -5 8 -3
4 5 -5 7 -8 28 -8 47 0 33 -21 49 -30 22 -3 -7 -7 -5 -11 6 -4 10 -3 15 3 11
19 -12 24 27 5 41 -27 20 -9 17 21 -2 13 -9 27 -14 31 -10 3 3 2 6 -4 6 -6 0
-14 11 -17 25 -4 14 -11 25 -16 25 -6 0 -10 9 -10 19 0 11 -5 21 -11 23 -9 3
-9 10 0 26 9 17 9 22 0 20 -6 -2 -14 3 -17 11 -3 8 0 11 7 7 6 -4 11 -4 11 -1
0 10 -30 38 -30 28 0 -4 -5 -1 -10 7 -5 8 -7 23 -4 33 3 9 1 17 -4 17 -9 0
-37 78 -34 92 1 5 -7 8 -17 8 -11 0 -23 5 -26 10 -3 6 -1 10 4 10 16 0 9 24
-9 32 -12 5 -10 7 5 8 18 1 17 2 -5 15 -14 8 -20 14 -14 15 7 0 11 18 10 44
-1 42 -2 43 -19 28 -17 -15 -17 -15 -10 4 4 10 13 30 20 44 7 14 13 34 14 45
0 11 3 14 6 8 2 -7 9 -13 15 -13 6 0 7 7 4 16 -5 13 -1 15 19 11 19 -3 25 -1
21 9 -3 8 1 15 9 15 8 1 20 2 26 3 7 0 15 10 19 20 6 17 7 18 13 3 3 -9 2 -17
-3 -17 -5 0 -7 -7 -3 -16 5 -13 7 -13 14 -2 7 11 11 10 19 -2 6 -9 10 -10 10
-3 0 6 -4 15 -10 18 -13 8 -13 35 0 35 5 0 9 -3 8 -7 -2 -5 5 -18 14 -31 11
-17 17 -20 21 -10 4 10 7 10 15 -1 13 -18 115 -20 135 -2 12 9 18 8 31 -4 9
-9 14 -20 11 -25 -7 -11 19 -20 34 -10 9 5 7 9 -8 13 -22 6 -29 37 -8 38 6 0
24 2 39 4 18 2 31 -2 37 -13 8 -14 10 -14 8 6 -1 12 -8 22 -17 22 -32 0 -41
14 -27 43 12 27 27 36 27 16 0 -5 5 -7 10 -4 14 9 13 -8 -2 -23 -7 -7 -9 -12
-5 -12 4 0 16 15 28 33 14 22 19 26 17 12 -2 -15 2 -19 16 -17 17 3 18 1 7
-11 -9 -11 -9 -17 -1 -22 6 -4 14 -4 17 -1 4 3 15 -2 25 -11 17 -15 18 -15 13
-1 -4 9 -13 19 -21 22 -9 3 -13 10 -9 15 3 6 -4 19 -15 29 -15 14 -18 21 -8
24 24 10 33 8 33 -4 0 -7 8 -12 18 -12 9 1 17 -3 17 -10 0 -6 5 -4 10 4 8 12
10 12 10 1 0 -8 3 -11 6 -8 4 4 19 -2 34 -13 37 -26 52 -25 20 1 -22 18 -22
21 -5 17 11 -1 23 -7 27 -13 5 -6 8 -4 8 5 0 8 10 26 21 40 11 14 17 19 13 11
-5 -11 -3 -13 10 -8 14 5 17 3 12 -8 -3 -8 -1 -15 5 -15 5 0 4 -6 -3 -14 -11
-12 -14 -11 -20 3 -6 14 -7 14 -7 -1 -1 -10 -6 -18 -12 -18 -5 0 -8 -4 -5 -8
8 -13 57 -6 67 9 5 8 9 10 9 4 0 -5 5 -3 10 5 6 9 10 10 10 3 0 -6 -4 -15 -10
-18 -13 -8 -13 -25 0 -25 6 0 14 10 19 23 10 23 71 90 78 84 6 -7 -9 -37 -18
-37 -5 0 -9 -5 -9 -11 0 -8 5 -8 15 1 9 8 15 9 15 2 0 -6 -5 -14 -11 -18 -8
-4 -7 -9 2 -15 11 -7 11 -9 -2 -9 -8 0 -24 -7 -35 -16 -18 -15 -18 -15 11 -9
37 8 35 6 45 49 5 24 4 34 -2 30 -6 -4 -9 -1 -6 7 3 8 10 14 16 14 5 0 14 4
19 8 4 5 3 8 -2 7 -25 -5 -28 1 -7 16 22 15 32 41 10 28 -7 -4 -8 -3 -4 5 10
15 29 3 22 -15 -3 -8 0 -15 7 -15 28 -3 32 -4 35 -14 1 -5 -2 -10 -7 -10 -5 0
-12 -2 -15 -6 -3 -3 6 -5 19 -5 17 0 25 6 25 17 0 9 6 22 14 28 7 6 13 24 13
39 0 15 -2 21 -4 15 -3 -7 -10 -13 -16 -13 -6 0 0 11 12 24 14 15 29 22 39 19
9 -4 13 -2 9 4 -4 6 0 14 9 17 8 3 13 2 10 -2 -2 -4 0 -14 6 -22 8 -12 9 -12
4 3 -3 9 -1 17 4 17 5 0 6 7 3 17 -4 10 -2 14 4 10 7 -5 9 1 5 15 -5 21 -4 21
10 8 8 -9 17 -22 20 -30 3 -8 4 9 2 38 -3 49 9 72 19 35 3 -12 7 -7 12 16 5
20 16 36 26 38 11 3 16 9 13 14 -3 5 1 7 8 4 16 -5 54 22 45 32 -4 4 -13 1
-19 -5 -7 -7 -17 -12 -22 -12 -6 0 0 7 12 16 12 8 20 20 17 25 -4 5 -1 9 5 9
6 0 8 4 5 10 -5 9 23 15 48 11 4 0 7 9 6 21 0 13 -3 17 -6 11 -2 -7 -13 -13
-24 -13 -12 0 -16 5 -13 15 4 10 17 13 47 10 22 -2 36 0 30 3 -6 4 -13 18 -14
32 -3 18 0 25 12 24 11 -1 15 5 12 17 -3 10 -11 15 -18 13 -7 -3 -16 -1 -20 5
-4 7 0 8 11 4 13 -5 16 -3 11 10 -3 9 0 23 8 31 8 7 12 16 9 19 -3 3 5 3 18 1
23 -5 23 -5 3 12 -17 14 -17 16 -2 11 20 -7 22 4 5 21 -9 9 -8 12 6 12 9 0 14
5 11 10 -4 6 -1 17 5 25 10 12 9 15 -6 16 -11 0 -14 3 -6 6 7 2 17 13 22 23 8
15 6 17 -13 13 -15 -3 -18 -2 -9 5 16 11 59 94 71 139 7 24 6 37 -4 46 -14 14
-10 90 5 95 5 2 6 10 3 18 -7 18 25 30 40 15 18 -18 29 -13 17 9 -6 11 -7 20
-3 19 22 -4 53 2 53 10 0 5 -13 11 -30 15 -28 5 -44 36 -19 36 5 0 7 -6 4 -12
-4 -7 0 -5 8 4 8 10 16 16 19 13 2 -3 5 1 5 8 0 6 3 22 7 35 5 16 3 22 -7 22
-16 0 -68 -55 -60 -63 3 -3 -5 -3 -17 0 -21 5 -22 3 -16 -28 5 -25 4 -30 -3
-19 -9 13 -11 12 -11 -6 0 -12 -9 -31 -20 -44 -11 -12 -17 -27 -14 -31 3 -5 1
-9 -5 -9 -5 0 -8 19 -7 43 1 23 -1 54 -5 69 -4 15 -4 30 1 33 5 3 6 13 3 22
-5 12 -3 14 7 8 9 -5 11 -4 6 4 -4 6 0 23 8 36 9 14 12 25 6 25 -6 0 -15 -10
-20 -22 -10 -26 -13 -17 -10 26 1 21 -2 26 -12 21 -7 -3 -5 0 6 9 10 8 16 22
13 30 -3 8 1 17 9 20 9 3 13 10 9 15 -3 5 0 13 6 16 5 4 9 21 8 39 -2 17 -1
36 2 41 3 6 7 26 8 45 2 34 7 69 12 80 1 3 2 14 3 25 1 15 8 20 29 20 15 1 27
-2 27 -5 0 -3 9 -6 20 -6 10 0 17 2 15 4 -7 8 37 38 105 72 51 26 77 33 118
33 49 -1 52 0 52 23 0 17 4 23 12 18 7 -5 8 -3 3 5 -11 19 -23 131 -12 124 4
-3 5 12 1 34 -4 21 -7 43 -6 48 1 6 4 28 6 50 2 22 5 42 6 45 1 3 2 9 1 13 -1
5 3 6 9 2 5 -3 11 -16 11 -28 1 -17 3 -15 8 8 4 17 4 45 0 63 -4 19 -3 35 3
38 17 11 3 231 -17 282 -11 28 -21 39 -25 31 -5 -8 -10 -5 -15 10 -3 11 -11
21 -16 21 -5 0 -9 5 -9 11 0 6 7 9 15 5 13 -5 14 -2 4 17 -8 14 -14 17 -17 9
-3 -10 -8 -8 -18 5 -12 16 -13 16 -8 -7 l5 -25 -15 25 c-8 14 -15 28 -16 33 0
12 38 8 43 -5 4 -10 6 -10 6 -1 1 6 -9 19 -20 27 -18 12 -20 19 -11 43 12 35
-1 63 -53 120 -28 30 -33 33 -28 15 5 -20 2 -22 -23 -21 -16 1 -34 0 -39 -2
-14 -6 -17 3 -10 23 4 10 11 16 15 13 4 -3 14 2 21 11 12 14 9 14 -25 0 -22
-9 -40 -15 -42 -14 -7 8 10 57 18 51 6 -3 8 0 6 8 -3 9 -16 13 -33 11 -25 -3
-27 -1 -23 22 3 14 1 26 -4 26 -5 0 -6 5 -3 10 4 6 10 8 15 5 5 -3 7 5 4 17
-3 13 -6 28 -6 35 -1 7 -5 10 -9 8 -10 -7 -59 53 -59 71 0 8 -6 14 -13 14 -16
0 -67 55 -67 72 0 13 -49 68 -61 68 -4 0 -5 -10 -2 -22 l4 -23 -13 23 c-8 12
-17 19 -22 15 -4 -4 -4 0 -1 9 4 10 -4 23 -24 37 -30 22 -30 22 -26 1 2 -11 0
-18 -6 -15 -5 4 -9 15 -9 25 0 14 -13 23 -49 34 -51 15 -111 43 -111 52 0 3 6
2 13 -2 6 -4 9 -3 4 1 -4 5 -17 9 -30 11 -30 3 -98 29 -106 41 -11 18 -71 43
-71 30 -1 -7 -6 -5 -13 4 -7 9 -21 16 -32 17 -66 5 -409 6 -417 1z m92 -1152
c14 -1 31 -6 38 -10 6 -5 17 -5 22 -2 13 8 13 -52 -1 -132 -9 -50 -14 -61 -23
-50 -14 19 -100 47 -140 47 -21 0 -27 -3 -17 -9 7 -5 22 -6 34 -3 15 4 18 2
12 -8 -6 -10 -4 -12 7 -8 15 6 40 -17 46 -42 2 -10 0 -11 -11 -2 -8 7 -17 9
-20 5 -4 -3 -7 -1 -7 6 0 7 -4 9 -10 6 -5 -3 -19 -1 -31 5 -11 7 -33 14 -47
16 -50 9 -64 16 -58 30 5 14 -9 16 -102 17 -17 0 -20 3 -11 13 6 7 8 18 4 24
-4 6 5 22 19 35 14 13 26 30 27 37 0 9 2 10 5 1 4 -9 16 -6 45 9 22 11 48 18
58 15 10 -2 24 -2 29 2 10 6 54 5 132 -2z m-515 -47 c-4 -6 -3 -10 2 -9 17 3
73 -14 73 -23 0 -5 6 -6 13 -3 6 4 4 0 -5 -8 -10 -8 -19 -23 -19 -33 -1 -18
-2 -18 -6 -1 -5 19 -30 17 -25 -2 1 -6 -2 -11 -8 -11 -5 0 -10 -6 -10 -14 0
-8 -7 -16 -15 -20 -8 -3 -15 -11 -15 -18 0 -10 2 -10 9 0 6 10 10 9 14 -7 3
-12 1 -19 -4 -15 -17 10 -9 -12 13 -36 l22 -23 -25 6 c-20 5 -21 4 -8 -6 9 -7
14 -18 12 -24 -7 -19 -50 -16 -62 5 -7 12 -10 13 -11 3 0 -12 -3 -11 -17 1
-19 16 -43 13 -55 -6 -4 -6 -8 22 -8 62 0 75 11 92 28 44 5 -16 17 -29 25 -29
16 0 16 22 2 91 -4 19 0 34 11 47 17 18 18 18 38 2 20 -17 20 -17 7 0 -10 12
-10 17 -2 17 7 0 9 5 6 10 -3 6 -2 10 4 10 6 0 8 8 5 18 -5 16 -5 16 6 -1 6
-9 8 -22 5 -27z m-725 -119 c0 -5 -9 -28 -19 -52 -23 -53 -39 -142 -21 -119
10 12 11 12 5 -5 -15 -40 -17 -65 -10 -102 6 -32 9 -35 15 -18 l9 20 1 -20 c0
-11 7 -37 14 -57 12 -34 12 -36 -3 -28 -9 5 -45 39 -81 75 -36 37 -76 71 -90
76 -20 8 -22 12 -10 19 13 8 12 10 -2 10 -22 0 -22 12 -1 58 20 44 52 82 69
82 7 0 14 4 16 9 3 8 87 59 101 60 4 1 7 -3 7 -8z m1094 -48 c7 -7 12 -9 66
-19 19 -3 37 -9 40 -13 3 -4 20 -16 38 -26 33 -20 42 -35 19 -35 -7 0 -14 -9
-15 -20 -4 -43 -6 -49 -14 -44 -4 3 -8 0 -8 -6 0 -6 -4 -8 -10 -5 -5 3 -10 1
-10 -4 0 -14 -76 -51 -173 -85 -91 -32 -104 -35 -214 -43 -73 -5 -85 -3 -112
17 -17 12 -29 26 -26 31 4 5 1 9 -5 9 -17 0 -33 51 -19 64 9 8 11 7 6 -5 -4
-12 0 -15 19 -11 19 3 24 0 24 -16 0 -12 5 -24 11 -28 9 -5 10 1 5 21 -7 27
-7 27 31 20 21 -4 40 -10 43 -14 3 -3 17 -12 33 -18 23 -11 27 -10 27 3 0 8
-4 13 -8 10 -4 -2 -8 4 -9 14 -1 13 3 17 13 13 7 -3 12 -9 9 -13 -3 -5 -1 -11
5 -15 5 -3 10 0 10 7 0 9 3 9 10 -2 5 -8 10 -11 10 -7 0 4 8 4 18 -2 13 -7 23
-4 40 11 12 12 22 16 22 10 0 -7 -4 -12 -10 -12 -15 0 -12 -17 4 -23 11 -5 14
3 13 31 -2 28 2 36 13 34 8 -2 11 0 7 5 -5 4 -14 8 -19 8 -6 0 -13 5 -15 12
-3 7 10 15 31 19 37 6 40 11 36 71 -2 46 38 82 64 56z m-450 -864 c-2 -4 2
-10 8 -13 7 -3 2 -3 -12 0 -23 5 -24 4 -5 -7 32 -20 65 -20 65 -1 0 13 3 12
16 -6 8 -12 20 -20 25 -17 5 4 9 -4 9 -15 0 -15 5 -20 14 -17 9 4 16 -3 21
-20 8 -33 -11 -46 -44 -29 -14 7 -47 12 -73 11 -27 0 -48 3 -48 7 0 4 -9 5
-20 3 -11 -2 -20 1 -20 7 0 6 -9 8 -20 5 -11 -3 -18 -1 -14 4 3 5 0 9 -5 9 -6
0 -11 -6 -11 -12 0 -9 -3 -9 -9 1 -12 18 -111 23 -104 5 6 -17 -29 -12 -45 6
-12 13 -13 13 -8 -4 6 -17 5 -17 -11 -5 -15 12 -16 12 -10 -3 3 -10 2 -18 -3
-18 -6 0 -10 4 -10 9 0 5 -13 8 -29 7 -16 0 -29 -3 -29 -6 2 -30 -5 -52 -19
-57 -10 -4 -23 -13 -29 -21 -9 -13 -12 -12 -17 2 -4 10 -2 25 3 34 9 14 10 12
5 -8 -5 -22 -5 -23 5 -7 7 10 10 27 7 38 -3 11 2 23 11 29 10 5 13 10 9 10 -4
0 -3 9 3 21 7 11 14 18 17 15 4 -3 13 3 21 15 8 11 20 18 28 15 8 -3 14 -1 14
4 0 5 36 8 80 8 45 0 83 1 85 3 7 7 153 4 149 -2z m54 -139 c34 -7 62 -17 62
-22 0 -5 9 -4 19 1 16 9 18 8 14 -9 -5 -18 0 -20 43 -20 35 0 45 -3 34 -10 -8
-5 -12 -10 -7 -10 19 0 22 -2 29 -20 4 -12 13 -17 22 -14 9 3 17 -3 21 -15 3
-12 10 -19 15 -16 4 3 15 -6 24 -20 18 -27 21 -49 6 -40 -5 3 -10 2 -10 -3 0
-5 11 -14 25 -20 14 -6 25 -19 25 -27 0 -9 4 -14 10 -10 5 3 6 13 3 21 -5 14
-3 15 14 5 12 -6 26 -24 32 -41 6 -18 6 -28 1 -25 -6 4 -10 12 -10 20 0 8 -5
17 -12 21 -8 5 -9 0 -6 -14 7 -25 2 -27 -35 -9 -20 9 -26 17 -23 32 5 19 5 19
-9 1 -12 -16 -12 -20 1 -33 21 -22 17 -35 -8 -28 -23 7 -23 7 -3 -8 11 -8 22
-14 26 -12 3 2 6 -2 6 -9 0 -11 -7 -11 -36 0 l-36 14 35 -31 c24 -22 27 -28 9
-17 -20 13 -29 14 -48 3 -20 -10 -21 -13 -7 -18 11 -5 15 -3 10 5 -4 6 -3 8 4
4 6 -3 10 -15 9 -25 -1 -15 -4 -17 -19 -7 -10 6 -21 19 -24 29 -3 9 -10 15
-15 11 -14 -8 -41 17 -35 33 3 8 1 11 -4 8 -6 -3 -10 -19 -10 -35 0 -20 -6
-31 -21 -35 -17 -6 -18 -9 -6 -18 18 -15 42 -75 33 -84 -3 -3 -6 2 -6 13 0 15
-2 16 -9 5 -5 -8 -7 -21 -4 -30 2 -9 -3 -4 -12 12 -8 15 -18 27 -21 27 -3 0
-2 -5 2 -12 4 -7 3 -8 -5 -4 -7 5 -9 16 -5 29 7 22 6 22 -15 3 -21 -19 -21
-19 -27 13 -4 17 -11 34 -15 37 -5 3 -2 12 6 20 16 16 11 39 -6 28 -5 -3 -7
-10 -4 -15 3 -5 -1 -6 -9 -3 -11 4 -16 0 -16 -10 0 -9 -5 -16 -10 -16 -7 0 -7
6 0 19 14 26 13 31 -5 25 -8 -4 -13 -10 -10 -14 7 -12 -5 -40 -17 -40 -7 0 -6
5 1 14 9 10 8 15 -4 20 -10 3 -15 0 -15 -11 0 -19 -13 -9 -16 12 -1 8 2 13 6
10 5 -3 14 4 20 15 11 20 10 21 -10 10 -17 -9 -25 -9 -34 1 -8 9 -7 11 6 6 17
-6 34 18 19 28 -5 3 -7 14 -4 25 3 11 9 18 13 15 4 -2 15 3 23 13 15 16 15 20
-4 51 -11 18 -15 30 -9 26 5 -3 10 0 10 7 0 9 -14 15 -37 16 -21 1 -67 5 -103
8 -36 3 -95 1 -132 -6 -36 -6 -74 -13 -83 -14 -9 -1 -20 -7 -23 -13 -5 -8 -13
-7 -26 3 -13 9 -16 17 -9 26 5 7 15 32 22 55 14 52 43 71 118 78 17 2 37 7 45
11 12 8 169 22 193 18 6 -1 38 -8 73 -14z"/>
<path d="M4945 2999 c-4 -17 -4 -33 -1 -36 3 -4 1 -13 -6 -20 -7 -9 -12 -63
-13 -149 -1 -74 -5 -137 -8 -141 -4 -3 1 -11 10 -18 15 -11 15 -16 -5 -54 -25
-47 -26 -51 -12 -51 6 0 9 3 9 8 -1 4 -1 14 0 22 1 12 3 13 10 1 5 -8 5 -27 0
-44 -6 -21 -5 -35 4 -46 9 -12 9 -13 0 -7 -7 4 -13 3 -13 -3 0 -6 -10 -19 -22
-31 -19 -17 -20 -20 -4 -20 10 0 17 -7 15 -17 -3 -32 3 -79 8 -60 2 9 9 14 15
10 7 -4 9 0 5 10 -3 8 0 18 7 20 8 3 11 -4 8 -24 -3 -23 0 -29 14 -30 11 0 13
-3 7 -6 -9 -3 -8 -11 4 -31 15 -26 15 -26 -9 2 -19 23 -27 26 -33 16 -5 -8 -4
-15 3 -18 6 -2 8 -10 5 -19 -4 -10 -2 -14 4 -10 6 4 13 -2 16 -13 3 -11 1 -18
-4 -14 -5 3 -9 -7 -9 -23 0 -19 -3 -24 -9 -14 -5 8 -8 -4 -6 -33 1 -27 -3 -46
-9 -46 -6 0 -4 -5 4 -10 12 -7 12 -10 1 -10 -7 0 -11 -6 -8 -14 3 -8 -3 -22
-13 -31 -10 -9 -22 -35 -26 -58 -3 -23 -13 -52 -22 -65 -11 -17 -12 -26 -4
-34 8 -8 14 -3 22 18 6 16 15 38 20 49 9 17 9 16 4 -5 -6 -24 -6 -24 13 -8 11
10 25 18 32 18 8 0 11 6 7 16 -3 9 -6 18 -6 22 0 3 -7 -3 -15 -14 -14 -17 -14
-16 0 13 8 18 14 36 13 40 -3 16 16 91 42 163 42 113 53 204 42 350 -5 86 -5
127 2 132 7 5 6 8 -2 8 -8 0 -10 5 -5 13 4 6 8 14 8 17 3 18 18 169 19 187 1
12 -2 19 -6 17 -4 -3 -8 0 -8 5 0 6 -7 19 -15 28 -8 10 -15 22 -15 26 1 8 -43
47 -53 47 -3 0 -8 -14 -12 -31z"/>
</g>
</svg>
